<svg xmlns="http://www.w3.org/2000/svg" style="display:none">
  <defs>
    <!-- Web Development -->
    <symbol id="ic-web" viewBox="0 0 24 24" fill="none" stroke="currentColor" stroke-width="1.5" stroke-linecap="round" stroke-linejoin="round">
      <rect x="2" y="3" width="20" height="14" rx="2" ry="2"/><line x1="8" y1="21" x2="16" y2="21"/><line x1="12" y1="17" x2="12" y2="21"/><path d="M6 7l3 3-3 3"/><path d="M18 7l-3 3 3 3"/>
    </symbol>
    <!-- Software Development -->
    <symbol id="ic-software" viewBox="0 0 24 24" fill="none" stroke="currentColor" stroke-width="1.5" stroke-linecap="round" stroke-linejoin="round">
      <polyline points="16 18 22 12 16 6"/><polyline points="8 6 2 12 8 18"/><line x1="10" y1="3" x2="14" y2="21"/>
    </symbol>
    <!-- App Development -->
    <symbol id="ic-app" viewBox="0 0 24 24" fill="none" stroke="currentColor" stroke-width="1.5" stroke-linecap="round" stroke-linejoin="round">
      <rect x="5" y="2" width="14" height="20" rx="2" ry="2"/><line x1="12" y1="18" x2="12.01" y2="18"/><path d="M8 7h8"/><path d="M8 10h6"/><path d="M8 13h4"/>
    </symbol>
    <!-- Graphic Design -->
    <symbol id="ic-design" viewBox="0 0 24 24" fill="none" stroke="currentColor" stroke-width="1.5" stroke-linecap="round" stroke-linejoin="round">
      <circle cx="13.5" cy="6.5" r="2.5"/><path d="M13.5 9L3 19.5V21h1.5L15 10.5"/><path d="M19 3l2 2-12 12-2-2L19 3z"/><path d="M21 15v2a2 2 0 01-2 2H7"/>
    </symbol>
    <!-- Video Editing -->
    <symbol id="ic-video" viewBox="0 0 24 24" fill="none" stroke="currentColor" stroke-width="1.5" stroke-linecap="round" stroke-linejoin="round">
      <polygon points="23 7 16 12 23 17 23 7"/><rect x="1" y="5" width="15" height="14" rx="2" ry="2"/>
    </symbol>
    <!-- SEO & Marketing -->
    <symbol id="ic-seo" viewBox="0 0 24 24" fill="none" stroke="currentColor" stroke-width="1.5" stroke-linecap="round" stroke-linejoin="round">
      <line x1="4" y1="9" x2="20" y2="9"/><line x1="4" y1="15" x2="20" y2="15"/><line x1="10" y1="3" x2="8" y2="21"/><line x1="16" y1="3" x2="14" y2="21"/><path d="M12 3c-1.5 0-3 1-3 3v12c0 2 1.5 3 3 3s3-1 3-3V6c0-2-1.5-3-3-3z"/>
    </symbol>
    <!-- Users -->
    <symbol id="ic-users" viewBox="0 0 24 24" fill="none" stroke="currentColor" stroke-width="1.5" stroke-linecap="round" stroke-linejoin="round">
      <path d="M17 21v-2a4 4 0 00-4-4H5a4 4 0 00-4 4v2"/><circle cx="9" cy="7" r="4"/><path d="M23 21v-2a4 4 0 00-3-3.87"/><path d="M16 3.13a4 4 0 010 7.75"/>
    </symbol>
    <!-- Orders -->
    <symbol id="ic-orders" viewBox="0 0 24 24" fill="none" stroke="currentColor" stroke-width="1.5" stroke-linecap="round" stroke-linejoin="round">
      <path d="M14 2H6a2 2 0 00-2 2v16a2 2 0 002 2h12a2 2 0 002-2V8z"/><polyline points="14 2 14 8 20 8"/><line x1="16" y1="13" x2="8" y2="13"/><line x1="16" y1="17" x2="8" y2="17"/><polyline points="10 9 9 9 8 9"/>
    </symbol>
    <!-- Account -->
    <symbol id="ic-account" viewBox="0 0 24 24" fill="none" stroke="currentColor" stroke-width="1.5" stroke-linecap="round" stroke-linejoin="round">
      <path d="M20 21v-2a4 4 0 00-4-4H8a4 4 0 00-4 4v2"/><circle cx="12" cy="7" r="4"/>
    </symbol>
    <!-- Settings -->
    <symbol id="ic-settings" viewBox="0 0 24 24" fill="none" stroke="currentColor" stroke-width="1.5" stroke-linecap="round" stroke-linejoin="round">
      <circle cx="12" cy="12" r="3"/><path d="M19.4 15a1.65 1.65 0 00.33 1.82l.06.06a2 2 0 010 2.83 2 2 0 01-2.83 0l-.06-.06a1.65 1.65 0 00-1.82-.33 1.65 1.65 0 00-1 1.51V21a2 2 0 01-2 2 2 2 0 01-2-2v-.09A1.65 1.65 0 009 19.4a1.65 1.65 0 00-1.82.33l-.06.06a2 2 0 01-2.83 0 2 2 0 010-2.83l.06-.06A1.65 1.65 0 004.68 15a1.65 1.65 0 00-1.51-1H3a2 2 0 01-2-2 2 2 0 012-2h.09A1.65 1.65 0 004.6 9a1.65 1.65 0 00-.33-1.82l-.06-.06a2 2 0 010-2.83 2 2 0 012.83 0l.06.06A1.65 1.65 0 009 4.68a1.65 1.65 0 001-1.51V3a2 2 0 012-2 2 2 0 012 2v.09a1.65 1.65 0 001 1.51 1.65 1.65 0 001.82-.33l.06-.06a2 2 0 012.83 0 2 2 0 010 2.83l-.06.06a1.65 1.65 0 00-.33 1.82V9a1.65 1.65 0 001.51 1H21a2 2 0 012 2 2 2 0 01-2 2h-.09a1.65 1.65 0 00-1.51 1z"/>
    </symbol>

    <!-- Notifications -->
    <symbol id="ic-bell" viewBox="0 0 24 24" fill="none" stroke="currentColor" stroke-width="1.5" stroke-linecap="round" stroke-linejoin="round">
      <path d="M18 8A6 6 0 006 8c0 7-3 9-3 9h18s-3-2-3-9"/><path d="M13.73 21a2 2 0 01-3.46 0"/>
    </symbol>
    <!-- Star -->
    <symbol id="ic-star" viewBox="0 0 24 24" fill="none" stroke="currentColor" stroke-width="1.5" stroke-linecap="round" stroke-linejoin="round">
      <polygon points="12 2 15.09 8.26 22 9.27 17 14.14 18.18 21.02 12 17.77 5.82 21.02 7 14.14 2 9.27 8.91 8.26 12 2"/>
    </symbol>
    <!-- Shield -->
    <symbol id="ic-shield" viewBox="0 0 24 24" fill="none" stroke="currentColor" stroke-width="1.5" stroke-linecap="round" stroke-linejoin="round">
      <path d="M12 22s8-4 8-10V5l-8-3-8 3v7c0 6 8 10 8 10z"/>
    </symbol>
    <!-- Chat -->
    <symbol id="ic-chat" viewBox="0 0 24 24" fill="none" stroke="currentColor" stroke-width="1.5" stroke-linecap="round" stroke-linejoin="round">
      <path d="M21 15a2 2 0 01-2 2H7l-4 4V5a2 2 0 012-2h14a2 2 0 012 2z"/>
    </symbol>
    <!-- Credit Card -->
    <symbol id="ic-card" viewBox="0 0 24 24" fill="none" stroke="currentColor" stroke-width="1.5" stroke-linecap="round" stroke-linejoin="round">
      <rect x="1" y="4" width="22" height="16" rx="2" ry="2"/><line x1="1" y1="10" x2="23" y2="10"/><line x1="5" y1="14" x2="8" y2="14"/><line x1="13" y1="14" x2="16" y2="14"/>
    </symbol>
    <!-- Dollar -->
    <symbol id="ic-dollar" viewBox="0 0 24 24" fill="none" stroke="currentColor" stroke-width="1.5" stroke-linecap="round" stroke-linejoin="round">
      <line x1="12" y1="1" x2="12" y2="23"/><path d="M17 5H9.5a3.5 3.5 0 000 7h5a3.5 3.5 0 010 7H6"/>
    </symbol>
    <!-- Check -->
    <symbol id="ic-check" viewBox="0 0 24 24" fill="none" stroke="currentColor" stroke-width="2" stroke-linecap="round" stroke-linejoin="round">
      <polyline points="20 6 9 17 4 12"/>
    </symbol>
    <!-- Close -->
    <symbol id="ic-x" viewBox="0 0 24 24" fill="none" stroke="currentColor" stroke-width="2" stroke-linecap="round" stroke-linejoin="round">
      <line x1="18" y1="6" x2="6" y2="18"/><line x1="6" y1="6" x2="18" y2="18"/>
    </symbol>
    <!-- Clock -->
    <symbol id="ic-clock" viewBox="0 0 24 24" fill="none" stroke="currentColor" stroke-width="1.5" stroke-linecap="round" stroke-linejoin="round">
      <circle cx="12" cy="12" r="10"/><polyline points="12 6 12 12 16 14"/>
    </symbol>
    <!-- Home -->
    <symbol id="ic-home" viewBox="0 0 24 24" fill="none" stroke="currentColor" stroke-width="1.5" stroke-linecap="round" stroke-linejoin="round">
      <path d="M3 9l9-7 9 7v11a2 2 0 01-2 2H5a2 2 0 01-2-2z"/><polyline points="9 22 9 12 15 12 15 22"/>
    </symbol>
    <!-- Box / Package -->
    <symbol id="ic-box" viewBox="0 0 24 24" fill="none" stroke="currentColor" stroke-width="1.5" stroke-linecap="round" stroke-linejoin="round">
      <path d="M12.89 1.45l8 4A2 2 0 0122 7.24v9.53a2 2 0 01-1.11 1.79l-8 4a2 2 0 01-1.79 0l-8-4a2 2 0 01-1.1-1.8V7.24a2 2 0 011.11-1.79l8-4a2 2 0 011.78 0z"/><polyline points="2.32 6.16 12 11 21.68 6.16"/><line x1="12" y1="22.76" x2="12" y2="11"/>
    </symbol>
    <!-- Trending -->
    <symbol id="ic-trending" viewBox="0 0 24 24" fill="none" stroke="currentColor" stroke-width="1.5" stroke-linecap="round" stroke-linejoin="round">
      <polyline points="23 6 13.5 15.5 8.5 10.5 1 18"/><polyline points="17 6 23 6 23 12"/>
    </symbol>
    <!-- Search -->
    <symbol id="ic-search" viewBox="0 0 24 24" fill="none" stroke="currentColor" stroke-width="1.5" stroke-linecap="round" stroke-linejoin="round">
      <circle cx="11" cy="11" r="8"/><line x1="21" y1="21" x2="16.65" y2="16.65"/>
    </symbol>
    <!-- Menu -->
    <symbol id="ic-menu" viewBox="0 0 24 24" fill="none" stroke="currentColor" stroke-width="2" stroke-linecap="round" stroke-linejoin="round">
      <line x1="3" y1="12" x2="21" y2="12"/><line x1="3" y1="6" x2="21" y2="6"/><line x1="3" y1="18" x2="21" y2="18"/>
    </symbol>
    <!-- Arrow Right -->
    <symbol id="ic-arrow-right" viewBox="0 0 24 24" fill="none" stroke="currentColor" stroke-width="2" stroke-linecap="round" stroke-linejoin="round">
      <line x1="5" y1="12" x2="19" y2="12"/><polyline points="12 5 19 12 12 19"/>
    </symbol>
    <!-- Arrow Left -->
    <symbol id="ic-arrow-left" viewBox="0 0 24 24" fill="none" stroke="currentColor" stroke-width="2" stroke-linecap="round" stroke-linejoin="round">
      <line x1="19" y1="12" x2="5" y2="12"/><polyline points="12 19 5 12 12 5"/>
    </symbol>
    <!-- Logout -->
    <symbol id="ic-logout" viewBox="0 0 24 24" fill="none" stroke="currentColor" stroke-width="1.5" stroke-linecap="round" stroke-linejoin="round">
      <path d="M9 21H5a2 2 0 01-2-2V5a2 2 0 012-2h4"/><polyline points="16 17 21 12 16 7"/><line x1="21" y1="12" x2="9" y2="12"/>
    </symbol>
    <!-- Image -->
    <symbol id="ic-image" viewBox="0 0 24 24" fill="none" stroke="currentColor" stroke-width="1.5" stroke-linecap="round" stroke-linejoin="round">
      <rect x="3" y="3" width="18" height="18" rx="2" ry="2"/><circle cx="8.5" cy="8.5" r="1.5"/><polyline points="21 15 16 10 5 21"/>
    </symbol>
    <!-- Filter -->
    <symbol id="ic-filter" viewBox="0 0 24 24" fill="none" stroke="currentColor" stroke-width="1.5" stroke-linecap="round" stroke-linejoin="round">
      <polygon points="22 3 2 3 10 12.46 10 19 14 21 14 12.46 22 3"/>
    </symbol>
    <!-- Lightning / Flash -->
    <symbol id="ic-flash" viewBox="0 0 24 24" fill="none" stroke="currentColor" stroke-width="1.5" stroke-linecap="round" stroke-linejoin="round">
      <polygon points="13 2 3 14 12 14 11 22 21 10 12 10 13 2"/>
    </symbol>
  </defs>
</svg>
